<?xml version="1.0" encoding="UTF-8"?>
<svg width="62px" height="50px" viewBox="0 0 62 50" version="1.1" xmlns="http://www.w3.org/2000/svg" xmlns:xlink="http://www.w3.org/1999/xlink">
    <!-- Generator: Sketch 52.4 (67378) - http://www.bohemiancoding.com/sketch -->
    <title>drawing-2</title>
    <desc>Created with Sketch.</desc>
    <g id="Page-1" stroke="none" stroke-width="1" fill="none" fill-rule="evenodd">
        <g id="iTechExpert" transform="translate(-224.000000, -1280.000000)" fill="#FF5151" fill-rule="nonzero">
            <g id="Our-Services" transform="translate(223.000000, 1029.000000)">
                <g id="UI/UX-Design" transform="translate(1.000000, 251.000000)">
                    <g id="drawing-2">
                        <path d="M18.8200545,36.8917967 C6.17507637,23.1538207 5.91984281,22.8760159 4.20396849,20.9831084 C3.59067089,20.306533 2.96234966,19.6283036 2.8077,19.4759337 C2.58072808,19.2523036 0.728002397,17.2438002 0.257962911,16.7118104 L0.142036747,16.580605 L7.46907123,8.36052277 L14.7961055,0.140436815 L30.7178445,0.140436815 L46.6395849,0.140436815 L53.9677459,8.36083784 C61.2411055,16.5197659 61.2950781,16.5821906 61.1853863,16.7082385 C61.0436774,16.8710673 42.2161637,37.3314954 41.800763,37.7740947 C41.6292596,37.9568241 39.0753932,40.7295125 36.1255062,43.9356221 C33.1756192,47.1417317 30.7458716,49.7700639 30.7260671,49.7763652 C30.7062623,49.7826666 25.3485579,43.9846084 18.8200545,36.8917967 Z M24.5263421,31.1796872 C21.9115675,23.593533 19.7535908,17.3661906 19.7308387,17.3411495 C19.7080853,17.3161152 16.0906671,17.3025193 11.6921288,17.310944 L3.6947863,17.3262522 L5.68486027,19.4960776 C12.029499,26.4138002 29.2269151,45.0262351 29.2515155,45.001749 C29.2674055,44.9857317 27.1411171,38.7658207 24.5263421,31.1796666 L24.5263421,31.1796872 Z M45.0167014,31.2170467 C51.98815,23.6238002 57.7011568,17.3851529 57.7122699,17.3533824 C57.7250781,17.3167796 54.816489,17.3012351 49.7714377,17.3109474 L41.8103932,17.3262557 L37.0799068,31.0386769 C34.4781363,38.5805125 32.3332938,44.8122659 32.3135849,44.8870193 C32.2938589,44.9617728 32.2920781,45.0229337 32.3095438,45.0229337 C32.3270438,45.0229337 38.0452493,38.8102762 45.0166979,31.2170296 L45.0167014,31.2170467 Z M35.1832253,30.0713892 L39.5902356,17.3262728 L30.7960695,17.3109646 C25.9592784,17.3025399 21.9938616,17.3037043 21.9840325,17.3133618 C21.9742038,17.3231906 23.9289726,23.0848344 26.3279637,30.1170091 C28.7269541,37.1491872 30.7092168,42.8833344 30.7329911,42.8595604 C30.7567651,42.8357933 32.7593726,37.0810296 35.1832253,30.071218 L35.1832253,30.0713892 Z M19.001276,15.1305604 C19.001276,14.9814132 14.9634606,3.13059092 14.9126438,3.13059092 C14.8703038,3.13059092 5.77526849,13.400944 4.33414897,15.076105 C4.24760548,15.1767043 4.60021473,15.1818173 11.6222408,15.1818173 C15.6807103,15.1818173 19.001276,15.1587351 19.001276,15.1305604 Z M41.1684445,12.6900228 C41.6423075,11.3195365 42.0817459,10.0623104 42.1449685,9.89619058 C42.5140575,8.92645428 44.838989,2.15641147 44.8158521,2.11877106 C44.777811,2.0568875 16.9019058,2.06092586 16.8636527,2.12281901 C16.8468753,2.14996284 17.8238675,5.08984024 19.0347452,8.65587551 C20.2456229,12.2219132 21.2363408,15.1490844 21.2363408,15.1607009 C21.2363408,15.1723104 25.5272106,15.181831 30.7716068,15.181831 L40.3068726,15.181831 L41.1684445,12.6900228 Z M57.1181911,15.1289509 C57.1181911,15.0860399 55.3669068,13.069581 53.4916705,10.9533173 C53.3003075,10.7373618 51.7230815,8.94326935 49.9867151,6.96644401 C48.2503521,4.98962106 46.8004788,3.37221935 46.7647767,3.37221935 C46.7071534,3.37221935 42.5735541,14.9184783 42.5639342,15.1063104 C42.5608521,15.1663207 44.0540884,15.1818173 49.8391295,15.1818173 C53.959263,15.1818173 57.1181911,15.1588721 57.1181911,15.1289509 Z" id="path270"></path>
                    </g>
                </g>
            </g>
        </g>
    </g>
</svg>