<?xml version="1.0" encoding="UTF-8"?>
<svg width="50px" height="50px" viewBox="0 0 50 50" version="1.1" xmlns="http://www.w3.org/2000/svg" xmlns:xlink="http://www.w3.org/1999/xlink">
    <!-- Generator: Sketch 52.4 (67378) - http://www.bohemiancoding.com/sketch -->
    <title>drawing-1</title>
    <desc>Created with Sketch.</desc>
    <g id="Page-1" stroke="none" stroke-width="1" fill="none" fill-rule="evenodd">
        <g id="iTechExpert" transform="translate(-601.000000, -1280.000000)" fill="#2DD665" fill-rule="nonzero">
            <g id="Our-Services" transform="translate(223.000000, 1029.000000)">
                <g id="UI/UX-Design-Copy" transform="translate(378.000000, 251.000000)">
                    <g id="drawing-1">
                        <path d="M22.0529636,49.6009868 C16.5146636,49.2940614 10.935189,46.7828991 7.04443465,42.8460702 C3.51840395,39.2782851 1.19246272,34.5900175 0.419721053,29.4930044 C0.174090351,27.8728246 0.174090351,24.8467412 0.419721053,23.226557 C1.36247412,17.0081535 4.54835439,11.5662982 9.37890439,7.92322807 C10.5193175,7.06316228 11.6639469,6.36501754 13.0787917,5.66654825 C16.1662838,4.14234211 19.1174851,3.35502632 22.2654605,3.21574123 L23.4063206,3.16526316 L23.4259127,14.7625219 L23.4455048,26.3597807 L35.0813947,26.379386 L46.7172851,26.3989912 L46.6681798,27.5398509 C46.5304781,30.7392588 45.6601886,33.9227368 44.0636404,37.067136 C42.5195219,40.1082719 40.5762719,42.5277412 38.0781667,44.5194254 C36.2346228,45.9892412 33.7938991,47.3621623 31.5299956,48.2028114 C28.5398035,49.3131447 25.3501382,49.7837368 22.0529605,49.6010088 L22.0529636,49.6009868 Z M26.0371868,46.6730439 C30.3017544,46.1161447 34.3156228,44.2823114 37.2995965,41.5275395 C39.3005132,39.6803114 40.943136,37.4274167 42.0128596,35.0631798 C42.7640439,33.4029693 43.4582982,31.1057807 43.6436754,29.6670746 L43.6960088,29.2609167 L32.1588728,29.2609167 L20.6217382,29.2609167 L20.6217382,17.7337456 L20.6217382,6.20657895 L20.4418592,6.20657895 C20.3429259,6.20657895 19.8764333,6.276 19.4052079,6.36085526 C11.9358215,7.70583333 5.55215877,13.7507807 3.64154781,21.2880921 C3.1851943,23.0883991 3.10327675,23.8569912 3.10100263,26.3597807 C3.09907281,28.4631491 3.11591053,28.7749561 3.28041711,29.6864167 C3.8919114,33.0743947 5.54311798,36.7504298 7.60682412,39.3181754 C9.75752719,41.9941667 12.7827855,44.1641798 16.2460697,45.5150921 C17.8015908,46.1218509 19.5149684,46.5248158 21.5887825,46.771636 C22.381311,46.8659561 25.0052311,46.8078202 26.0371868,46.6730439 Z M26.6560952,11.7647193 L26.6560952,0.148153509 L27.7248342,0.196767544 C34.206,0.491596491 40.513364,3.62431579 44.5587018,8.55776316 C47.1855351,11.7612895 48.9632939,15.7179298 49.6349649,19.8556623 C49.7870921,20.7928246 49.9678596,23.2003377 49.8949561,23.3182982 C49.8735526,23.3529474 44.6360439,23.3812851 38.2560614,23.3812851 L26.6560952,23.3812851 L26.6560952,11.7647193 Z M46.862114,20.3641053 C46.7273158,18.8772719 45.9295789,16.3394211 44.9963377,14.4284868 C44.1952719,12.7881886 43.3725175,11.5569693 42.0869956,10.0747544 C38.8024868,6.28769298 34.5110877,3.89332895 29.8086579,3.22412719 L29.4411798,3.17182895 L29.4411798,11.9230263 L29.4411798,20.6742237 L38.1639211,20.6545307 L46.8866623,20.6348816 L46.862114,20.3641053 Z" id="path158"></path>
                    </g>
                </g>
            </g>
        </g>
    </g>
</svg>