<?xml version="1.0" encoding="UTF-8"?>
<svg width="46px" height="50px" viewBox="0 0 46 50" version="1.1" xmlns="http://www.w3.org/2000/svg" xmlns:xlink="http://www.w3.org/1999/xlink">
    <!-- Generator: Sketch 52.4 (67378) - http://www.bohemiancoding.com/sketch -->
    <title>drawing-1</title>
    <desc>Created with Sketch.</desc>
    <g id="Page-1" stroke="none" stroke-width="1" fill="none" fill-rule="evenodd">
        <g id="iTechExpert" transform="translate(-990.000000, -1280.000000)" fill="#AD56FF" fill-rule="nonzero">
            <g id="Our-Services" transform="translate(223.000000, 1029.000000)">
                <g id="UI/UX-Design-Copy-2" transform="translate(767.000000, 251.000000)">
                    <g id="drawing-1">
                        <path d="M34.0046547,49.6746835 C32.5459317,49.5947122 31.1624424,49.2072878 29.8804532,48.5197698 L29.1507878,48.1284568 L14.9064309,48.0967302 C-0.703045683,48.061982 0.416402158,48.0934928 0.220988489,47.6817914 C0.132933094,47.4962266 0.122757194,45.3179712 0.122757194,26.6540108 C0.122757194,4.00704496 0.0979802158,5.58626727 0.456522302,5.38141007 C0.565204317,5.31931403 1.41192698,5.29275612 4.05661007,5.26849317 L7.51459388,5.23677014 L7.54631691,4.23866079 C7.57770899,3.25098597 7.57988165,3.23871439 7.75391619,3.06485 L7.92979029,2.8891482 L10.6249942,2.87130647 L13.3201982,2.85346475 L13.3201982,1.90117662 C13.3201982,1.07477914 13.3369392,0.916075899 13.4468263,0.700676619 C13.5439781,0.510244604 13.6289061,0.437065108 13.8116597,0.386311871 C14.1667806,0.287690647 21.5948165,0.302451439 21.8799065,0.402344245 C22.2988129,0.549126259 22.3578129,0.713232014 22.3934424,1.83070647 L22.4251691,2.8256964 L25.0644928,2.85741942 C27.2843741,2.88410288 27.7220432,2.90426906 27.8185,2.98431799 C28.0465144,3.17354388 28.1038741,3.45370252 28.1038741,4.37816295 L28.1038741,5.26849029 L31.5850252,5.26849029 C34.9959065,5.26849029 35.0695072,5.27111619 35.2311727,5.39827518 C35.3219209,5.46965612 35.4255432,5.63383094 35.4614496,5.76310827 C35.5050504,5.92009748 35.5268453,9.71795324 35.5270827,17.199054 L35.5274424,28.3999532 L36.1945072,28.4791799 C39.2269317,28.8393525 41.9299568,30.5769784 43.7970468,33.3664353 C44.4484784,34.3396835 44.9475647,35.5568094 45.2500036,36.9097554 C45.3713813,37.4527518 45.3893633,37.723223 45.3905288,39.0234856 C45.3916079,40.3447158 45.3753129,40.5904209 45.2464784,41.180759 C44.8526367,42.985554 44.2112014,44.3421978 43.1165863,45.685518 C40.7931259,48.5368525 37.7278777,49.8788022 34.0046331,49.6746763 L34.0046547,49.6746835 Z M36.4474496,47.9368273 C38.1349353,47.642241 39.6648309,46.8495036 40.9735863,45.5915504 C42.4446367,44.1775971 43.2458957,42.7458381 43.6550468,40.8000719 C43.8390324,39.9251079 43.8561367,38.2691583 43.6901187,37.405536 C43.3239424,35.5008129 42.5314209,33.9972806 41.162741,32.6107194 C39.4093022,30.8343669 37.2794856,29.9502518 34.7537446,29.9502518 C33.2764424,29.9502518 32.0472086,30.2240288 30.8004784,30.8307302 C29.6008381,31.414518 28.6429568,32.1822734 27.6638489,33.3447842 C26.8285216,34.3365863 26.3066331,35.3755612 25.9268669,36.8027698 C25.7405216,37.5030755 25.732554,37.5860468 25.7288849,38.8648705 C25.7247842,40.2963058 25.8324101,41.1612014 26.0879892,41.7504676 C26.1564209,41.908241 26.2941223,42.2657482 26.3939928,42.5449245 C26.6542698,43.2724964 26.9440468,43.7793381 27.477536,44.4401187 C28.4080899,45.5927014 29.3824532,46.4111331 30.6418561,47.0980324 C31.4794856,47.5548921 32.5796223,47.8884101 33.7302482,48.0343094 C34.3216871,48.1093058 35.7537662,48.0579424 36.4474604,47.9368273 L36.4474496,47.9368273 Z M34.163277,43.0572662 C33.9765791,42.9734424 29.992482,39.6176978 29.8368633,39.4131906 C29.5466331,39.0317806 30.0424676,38.2621007 30.5784029,38.2621007 C30.8685072,38.2621007 30.8507014,38.249223 32.8701547,39.9180504 C34.2922734,41.0932446 34.3473094,41.1314568 34.4438921,41.0107302 C34.4989353,40.9419245 35.5718525,39.4059532 36.8281475,37.5974604 C38.2633669,35.5313921 39.1830647,34.2648741 39.3026655,34.1897842 C39.5476367,34.0359892 39.8585252,34.0841259 40.1592302,34.3224209 C40.4443417,34.5483561 40.5627806,34.7909101 40.513259,35.0474496 C40.4586151,35.3305432 35.2297086,42.8186043 34.9565612,43.0049317 C34.7210396,43.1655899 34.4451007,43.183795 34.163277,43.0572662 Z M26.9617878,46.3970144 C26.9617878,46.3694964 26.7934029,46.1572878 26.5875971,45.9254424 C26.381795,45.6935971 26.1321259,45.3949029 26.0327806,45.2616763 C25.9334317,45.1284496 25.8337806,45.0051691 25.8113309,44.9877194 C25.7888849,44.9702734 25.7231151,44.8421763 25.6651835,44.7030647 C25.6072482,44.5639532 25.5078561,44.3926403 25.4443058,44.3223705 C25.3807554,44.2520971 25.3118849,44.123223 25.2912518,44.035982 C25.2706403,43.9487374 25.1526691,43.709723 25.0291295,43.5048381 C24.9055899,43.2999532 24.8045144,43.1072662 24.8045144,43.0766439 C24.8045144,43.0460324 24.7079281,42.7282734 24.5898813,42.3705288 C24.4718309,42.0127842 24.3410935,41.5487734 24.2993525,41.3393885 C24.2576115,41.1300072 24.1804137,40.7588273 24.1277986,40.5145504 C24.0053813,39.9461763 24.044036,37.9549281 24.1912374,37.2469137 C24.2456475,36.9851835 24.3186187,36.6282842 24.3533849,36.4537986 C24.3881691,36.2793129 24.5038849,35.9134532 24.6105576,35.6407806 C24.7172338,35.3681043 24.8045144,35.1031835 24.8045144,35.0520647 C24.8045144,34.8743453 25.5702266,33.4597482 26.0034065,32.8371906 C26.3181906,32.384795 27.1099496,31.5310755 27.7231799,30.9828381 C28.3630108,30.4108165 29.0148993,29.941205 29.431054,29.7525108 C29.6575899,29.649795 29.8877374,29.5252122 29.9424964,29.4756547 C30.0611763,29.3682518 30.8621511,29.0263129 31.3080612,28.8926942 C31.4825468,28.8404101 31.7947446,28.7421619 32.0018309,28.6743669 C32.2089173,28.6065719 32.6514784,28.5205072 32.985295,28.4831151 C33.3191115,28.4457194 33.6564784,28.4030827 33.7349964,28.3883633 L33.8777554,28.3616007 L33.8777554,17.6081655 L33.8777554,6.8547277 L30.9908165,6.8547277 L28.1038741,6.8547277 L28.1024353,7.79060396 C28.1006367,8.94774245 28.0139424,9.21677158 27.6071187,9.32631799 C27.4314964,9.37360719 24.4125576,9.38922662 17.6883982,9.37763561 C7.05368453,9.35930468 7.84070719,9.39113561 7.64147158,8.97127626 C7.56995468,8.82056151 7.54631835,8.53278381 7.54631835,7.81273957 L7.54631835,6.8547277 L4.65937806,6.8547277 L1.77243741,6.8547277 L1.77243741,26.6508921 L1.77243741,46.447054 L14.3671122,46.447054 C21.2941835,46.447054 26.9617878,46.424536 26.9617878,46.3970144 Z M5.44539029,39.7531799 C5.21707194,39.6290935 5.11272986,39.3436043 5.15081835,38.9472122 C5.17647302,38.6802302 5.21980432,38.5851799 5.38189353,38.4403561 L5.58139388,38.2621007 L11.2971701,38.2621007 L17.0129457,38.2621007 L17.228673,38.4778273 C17.4170856,38.666241 17.4444004,38.7341511 17.4444004,39.0141619 C17.4444004,39.4127662 17.3442781,39.6408777 17.1179522,39.7579173 C16.8571518,39.8927806 5.69391727,39.8882518 5.44539029,39.7531691 L5.44539029,39.7531799 Z M5.45947662,34.7472986 C5.24816655,34.6301763 5.14013165,34.4076331 5.13749532,34.0840396 C5.13468957,33.7379928 5.28372554,33.4159568 5.49026043,33.3218525 C5.69640252,33.2279281 21.7305719,33.2178381 21.9768633,33.3114928 C22.1998201,33.3962626 22.3929676,33.7356942 22.3929676,34.042741 C22.3929676,34.3497914 22.1998201,34.6892194 21.9768633,34.7739892 C21.8741223,34.8130504 18.8277032,34.8350288 13.7126263,34.8336079 C7.10981547,34.8318094 5.58306439,34.8158022 5.45947662,34.7473129 L5.45947662,34.7472986 Z M5.59283669,29.8786403 C5.00493957,29.7090899 4.97379928,28.6314317 5.54984281,28.3907446 C5.87929496,28.2530935 25.7164353,28.2557194 26.0460971,28.3936223 C26.6038813,28.6266799 26.5782734,29.6737482 26.0100504,29.8675216 C25.7299568,29.963036 5.92286475,29.973982 5.59283669,29.8788165 L5.59283669,29.8786403 Z M5.47168921,24.9257626 C5.28231619,24.8335863 5.1352464,24.5010468 5.1352464,24.165036 C5.1352464,23.8936547 5.24696978,23.6559712 5.44958094,23.4963094 C5.52511115,23.4367878 6.96045144,23.4185504 11.6912615,23.4169964 L17.8348568,23.4148381 L18.0105047,23.5904856 C18.3205737,23.9005576 18.3198112,24.566982 18.0090658,24.8482338 C17.8795252,24.9654784 17.6794755,24.9697302 11.743186,24.9814173 C7.49493237,24.9897626 5.56828597,24.9726403 5.47169209,24.9256223 L5.47168921,24.9257626 Z M20.291545,24.8943957 C19.7763723,24.5746655 19.8020054,23.8268597 20.3403076,23.471964 C20.6906583,23.240982 21.2223777,23.3694604 21.4089065,23.7301619 C21.5366619,23.9772158 21.5310144,24.3985468 21.3968921,24.6255755 C21.1926187,24.9713849 20.6343489,25.1071511 20.2915306,24.8943957 L20.291545,24.8943957 Z M23.5280108,24.9058705 C23.3393309,24.8033345 23.1548345,24.460464 23.1548345,24.2123597 C23.1548345,23.9352374 23.3230683,23.6200504 23.5273813,23.5143957 C23.6944173,23.428018 24.1399856,23.4150072 26.9310827,23.4150072 C29.0123957,23.4150072 30.185554,23.4379928 30.2646655,23.4803381 C30.5541763,23.6352806 30.6793381,24.3047446 30.487982,24.6747914 C30.3199712,24.9996799 30.3005252,25.0014281 26.8794928,24.9986978 C24.2483669,24.9965396 23.6652446,24.9804604 23.5280108,24.9058705 Z M5.59283669,20.044036 C5.0114741,19.8763741 4.98181043,18.744554 5.55308597,18.5273561 C5.65896151,18.4871043 10.0539212,18.4708022 17.9559446,18.4813525 L30.1948237,18.4976835 L30.3664964,18.6693597 C30.5050683,18.8079388 30.5427194,18.9119173 30.5617806,19.2086799 C30.5921403,19.6815935 30.4410036,19.950464 30.089964,20.0479424 C29.7747446,20.1354784 5.89670036,20.1316619 5.59283669,20.0440216 L5.59283669,20.044036 Z M5.54766727,15.1071223 C5.04176763,14.8979676 4.9888554,13.9041583 5.46901259,13.6298165 C5.68769532,13.5048705 16.7538917,13.5116115 17.0508349,13.6368669 C17.3170647,13.7491727 17.4444004,13.9964137 17.4444004,14.4010324 C17.4444004,14.6642734 17.41185,14.7568597 17.2592709,14.9276403 L17.0741406,15.1348489 L11.3743536,15.147223 C8.2394705,15.1540216 5.61746151,15.136 5.54766727,15.1071259 L5.54766727,15.1071223 Z M26.4394029,6.10919928 L26.4224604,4.47538129 L24.4238094,4.47538129 L22.4251583,4.47538129 L22.3934317,5.48006763 L22.361705,6.48475396 L22.1544928,6.66974101 L21.9472842,6.8547277 L17.8905299,6.8547277 C15.1414791,6.8547277 13.7856806,6.83281763 13.6845989,6.78676367 C13.3955442,6.65506115 13.3538906,6.50326906 13.3201996,5.4588446 L13.2884766,4.47538129 L11.2581007,4.47538129 L9.22772482,4.47538129 L9.21079317,6.10919928 L9.19385791,7.74301727 L17.8250971,7.74301727 L26.4563381,7.74301727 L26.4394029,6.10919928 Z M20.7437626,3.61881655 L20.7437626,1.96913633 L17.8568205,1.96913633 L14.9698799,1.96913633 L14.9698799,3.61881655 L14.9698799,5.26849676 L17.8568205,5.26849676 L20.7437626,5.26849676 L20.7437626,3.61881655 Z" id="path525"></path>
                    </g>
                </g>
            </g>
        </g>
    </g>
</svg>