<?xml version="1.0" encoding="UTF-8"?>
<svg width="37px" height="50px" viewBox="0 0 37 50" version="1.1" xmlns="http://www.w3.org/2000/svg" xmlns:xlink="http://www.w3.org/1999/xlink">
    <!-- Generator: Sketch 52.4 (67378) - http://www.bohemiancoding.com/sketch -->
    <title>pencil</title>
    <desc>Created with Sketch.</desc>
    <g id="Page-1" stroke="none" stroke-width="1" fill="none" fill-rule="evenodd">
        <g id="iTechExpert" transform="translate(-224.000000, -1478.000000)" fill="#FFAD42">
            <g id="Our-Services" transform="translate(223.000000, 1029.000000)">
                <g id="UI/UX-Design-Copy-3" transform="translate(1.000000, 449.000000)">
                    <g id="pencil">
                        <circle id="Oval" cx="28.4889648" cy="44.3181641" r="1.13632813"></circle>
                        <path d="M33.0344727,0 L23.9435547,0 C22.0117188,0 20.5344727,1.47724609 20.5344727,3.40908203 C20.5344727,4.09091797 20.9890625,4.54541016 21.6708008,4.54541016 C22.3525391,4.54541016 22.8071289,4.09082031 22.8071289,3.40908203 C22.8071289,2.72724609 23.2617188,2.27275391 23.943457,2.27275391 L33.034375,2.27275391 C33.7162109,2.27275391 34.1707031,2.72734375 34.1707031,3.40908203 L34.1707031,46.590918 C34.1707031,47.2727539 33.7161133,47.7272461 33.034375,47.7272461 L23.943457,47.7272461 C23.2616211,47.7272461 22.8071289,47.2726563 22.8071289,46.590918 L22.8071289,40.909082 L25.0798828,40.909082 C25.7617188,40.909082 26.2162109,40.4544922 26.2162109,39.7727539 C26.2162109,39.090918 25.7616211,38.6364258 25.0798828,38.6364258 L22.8071289,38.6364258 L22.8071289,36.3636719 L27.3525391,36.3636719 C28.034375,36.3636719 28.4888672,35.909082 28.4888672,35.2273437 C28.4888672,34.5456055 28.0342773,34.0910156 27.3525391,34.0910156 L22.8071289,34.0910156 L22.8071289,31.8182617 L25.0798828,31.8182617 C25.7617188,31.8182617 26.2162109,31.3636719 26.2162109,30.6819336 C26.2162109,30.0001953 25.7616211,29.5456055 25.0798828,29.5456055 L22.8071289,29.5456055 L22.8071289,27.2728516 L27.3525391,27.2728516 C28.034375,27.2728516 28.4888672,26.8182617 28.4888672,26.1365234 C28.4888672,25.4547852 28.0344727,25 27.3526367,25 L22.8072266,25 L22.8072266,22.7272461 L25.0799805,22.7272461 C25.7618164,22.7272461 26.2163086,22.2726563 26.2163086,21.590918 C26.2163086,20.909082 25.7617188,20.4545898 25.0799805,20.4545898 L22.8072266,20.4545898 L22.8072266,18.1818359 L27.3526367,18.1818359 C28.0344727,18.1818359 28.4889648,17.7272461 28.4889648,17.0455078 C28.4889648,16.3637695 28.034375,15.9091797 27.3526367,15.9091797 L22.8072266,15.9091797 L22.8072266,13.6364258 L25.0799805,13.6364258 C25.7618164,13.6364258 26.2163086,13.1818359 26.2163086,12.5000977 C26.2163086,11.8183594 25.7617188,11.3637695 25.0799805,11.3637695 L22.8072266,11.3637695 L22.8072266,9.09091797 L27.3526367,9.09091797 C28.0344727,9.09091797 28.4889648,8.63632812 28.4889648,7.95458984 C28.4889648,7.27285156 28.034375,6.81826172 27.3526367,6.81826172 L21.6708008,6.81826172 C20.9889648,6.81826172 20.5344727,7.27285156 20.5344727,7.95458984 L20.5344727,46.590918 C20.5344727,48.5227539 22.0117188,50 23.9435547,50 L33.0344727,50 C34.9663086,50 36.4435547,48.5227539 36.4435547,46.590918 L36.4435547,3.40908203 C36.4435547,1.47724609 34.9663086,0 33.0344727,0 Z" id="Path"></path>
                        <path d="M12.5798828,6.81816406 L5.76171875,6.81816406 C5.07988281,6.81816406 4.62539063,7.27275391 4.62539063,7.95449219 C4.62539063,8.63623047 5.07988281,9.09091797 5.76171875,9.09091797 L11.4435547,9.09091797 L11.4435547,37.840918 C11.4435547,38.8636719 11.1026367,40 10.5344727,40.7955078 L6.89814453,46.7045898 L3.26171875,40.7954102 C3.03447266,40.4544922 2.92080078,40.1135742 2.80712891,39.7726562 L9.17080078,39.7726562 C9.85263672,39.7726562 10.3071289,39.3180664 10.3071289,38.6363281 C10.3071289,37.9544922 9.85253906,37.5 9.17080078,37.5 L2.35263672,37.5 L2.35263672,3.40908203 C2.35263672,2.72724609 2.80722656,2.27275391 3.48896484,2.27275391 L10.3071289,2.27275391 C10.9889648,2.27275391 11.443457,2.72734375 11.443457,3.40908203 C11.443457,4.09091797 11.8980469,4.54541016 12.5797852,4.54541016 C13.2615234,4.54541016 13.7161133,4.09082031 13.7161133,3.40908203 C13.7163086,1.47724609 12.2389648,0 10.3071289,0 L3.48896484,0 C1.55712891,0 0.0798828125,1.47724609 0.0798828125,3.40908203 L0.0798828125,37.840918 C0.0798828125,39.3181641 0.534472656,40.7955078 1.32988281,42.0455078 L5.98896484,49.4318359 C6.21621094,49.7727539 6.55712891,50 6.89804687,50 C7.23896484,50 7.69345703,49.7727539 7.80712891,49.4318359 L12.4662109,42.0455078 C13.2616211,40.7955078 13.7162109,39.3182617 13.7162109,37.840918 L13.7162109,7.95458984 C13.7163086,7.27275391 13.2617188,6.81816406 12.5798828,6.81816406 Z" id="Path"></path>
                        <path d="M6.89804687,11.3636719 C6.21621094,11.3636719 5.76171875,11.8182617 5.76171875,12.5 L5.76171875,34.090918 C5.76171875,34.7727539 6.21630859,35.2272461 6.89804687,35.2272461 C7.57978516,35.2272461 8.034375,34.7726563 8.034375,34.090918 L8.034375,12.5 C8.03447266,11.8181641 7.57988281,11.3636719 6.89804687,11.3636719 Z" id="Path"></path>
                    </g>
                </g>
            </g>
        </g>
    </g>
</svg>