<?xml version="1.0" encoding="UTF-8"?>
<svg width="58px" height="50px" viewBox="0 0 58 50" version="1.1" xmlns="http://www.w3.org/2000/svg" xmlns:xlink="http://www.w3.org/1999/xlink">
    <!-- Generator: Sketch 52.4 (67378) - http://www.bohemiancoding.com/sketch -->
    <title>drawing-1</title>
    <desc>Created with Sketch.</desc>
    <g id="Page-1" stroke="none" stroke-width="1" fill="none" fill-rule="evenodd">
        <g id="iTechExpert" transform="translate(-601.000000, -1478.000000)" fill="#2ABCFF" fill-rule="nonzero">
            <g id="Our-Services" transform="translate(223.000000, 1029.000000)">
                <g id="UI/UX-Design-Copy-4" transform="translate(378.000000, 449.000000)">
                    <g id="drawing-1">
                        <path d="M16.6551645,49.7499696 C16.3828436,49.6314797 16.1959821,49.4526047 16.0381341,49.1593007 C15.9184618,48.9369291 15.9098537,48.8369764 15.9098537,47.6695304 C15.9098537,46.6048412 15.9264416,46.3692196 16.0210632,46.0903716 C16.1758571,45.6341723 16.4319551,45.2486926 16.8094753,44.9036622 C17.4760767,44.2944257 17.9242321,44.1864831 19.7946544,44.1846453 L20.9978672,44.1836318 L21.3659517,43.0365068 C21.5683976,42.4055912 21.7682253,41.776223 21.8100125,41.6379189 L21.8859922,41.3864527 L17.4054855,41.3697635 C13.241803,41.3542568 12.9136409,41.3456419 12.7646003,41.2479561 C12.5084652,41.0800811 12.4014449,40.8662027 12.4014449,40.5221993 C12.4014449,40.1691588 12.5674753,39.8739696 12.8330328,39.7548784 C12.9522186,39.7014291 17.9574247,39.6773682 33.6679257,39.6547331 C53.0251351,39.6268277 54.3622365,39.6184054 54.6009561,39.5226791 C55.4488345,39.1826858 56.040223,38.4811182 56.2226723,37.598848 C56.2644696,37.3967601 56.2792365,31.9420236 56.2685777,20.6452534 L56.2528682,3.98961284 L56.0976216,3.66186284 C55.7535777,2.93555203 55.2397804,2.43301486 54.5599966,2.1579473 L54.226777,2.02311622 L29.3178074,2.00740676 C14.0599145,1.99777838 4.25212128,2.01331892 4.00436824,2.047525 C3.12004257,2.16962297 2.428275,2.68558919 2.00753142,3.53689662 L1.78683547,3.98343716 L1.77131182,20.7315608 C1.75396047,39.4479257 1.71510101,37.7454223 2.17593649,38.4584257 C2.48057568,38.9297601 2.78477736,39.2080236 3.24118615,39.4328378 L3.63121351,39.6249527 L6.46324797,39.65475 C9.52806993,39.6869797 9.51023885,39.6850203 9.75611723,40.0174527 C10.0399111,40.4011385 9.88934696,41.1023682 9.48668142,41.2723108 C9.33466723,41.3364662 8.71283851,41.3530878 6.46471824,41.3530878 C3.68593919,41.3530878 3.62546959,41.350723 3.15951858,41.2156757 C1.69610338,40.7920068 0.579351351,39.6479932 0.206643243,38.1907196 C0.0902118243,37.7354764 0.088497973,37.4844561 0.088497973,20.8836351 C0.088497973,4.32346081 0.0904912162,4.03073108 0.205801351,3.57983919 C0.552934122,2.22256216 1.68304764,0.993727703 3.00988074,0.530808784 L3.51497128,0.354589189 L28.7814899,0.338271622 C57.099098,0.319994595 54.5358581,0.278697297 55.5400405,0.769359459 C56.6495034,1.31146419 57.5302804,2.39268716 57.8359223,3.58773446 C57.9485642,4.02817365 57.9512061,4.42312973 57.9512061,20.8538311 C57.9512061,37.2656655 57.9485034,37.6799595 57.8362973,38.1184662 C57.5091014,39.3978007 56.6540338,40.4369155 55.4966757,40.9616858 C54.5746453,41.3797568 55.4031385,41.3468581 45.2757534,41.3675203 C38.1146047,41.3821486 36.1511588,41.4018581 36.1701014,41.459 C36.1833784,41.4990709 36.3848851,42.1285068 36.6178818,42.85775 L37.0415169,44.1836453 L38.2448851,44.1846588 C38.9067331,44.1853345 39.6359595,44.2126655 39.8653851,44.2454764 C41.0066047,44.4086284 41.9241892,45.3584223 42.1057365,46.564473 C42.1437095,46.8167297 42.1627703,47.4477804 42.1498345,48.0244493 C42.1285845,48.9716689 42.117098,49.0580034 41.9794662,49.3052466 C41.8982973,49.4510574 41.738027,49.6253615 41.6233142,49.6925845 C41.4150372,49.8146419 41.3976824,49.8148311 29.1390338,49.8276791 C18.2684889,49.8390642 16.8394922,49.8300439 16.6551747,49.7499831 L16.6551645,49.7499696 Z M40.5505777,47.386473 C40.5504595,46.513277 40.4884223,46.2955709 40.1738649,46.0648142 L40.005625,45.9413953 L29.0899662,45.9262601 C18.784097,45.9119696 18.1628909,45.9169358 17.9699753,46.0156486 C17.5695429,46.2205101 17.5210902,46.3544493 17.4995125,47.3161351 L17.480222,48.1760709 L29.0154493,48.1760709 L40.5506723,48.1760709 L40.5505541,47.3864899 L40.5505777,47.386473 Z M34.9728547,43.0065473 C34.7634291,42.3592432 34.5641216,41.7290676 34.5299459,41.6061622 L34.4678108,41.3826959 L29.021152,41.3826959 L23.5744922,41.3826959 L23.4223334,41.8743209 C23.3386476,42.1447162 23.1388503,42.7748885 22.9783368,43.2747061 L22.6864956,44.1834662 L29.0200608,44.1834662 L35.3536216,44.1834662 L34.9728547,43.0065473 Z M5.71612872,34.5336216 C5.07889054,34.3805642 4.45162196,33.7557601 4.32020811,33.1431858 C4.27155811,32.9164088 4.25827466,29.1273446 4.27148243,19.2446993 L4.28964122,5.65798784 L4.43003851,5.38982905 C4.74680912,4.78479865 5.27226081,4.41946081 5.97099696,4.31842703 C6.52479054,4.23834932 51.5148919,4.23834932 52.0686858,4.31842703 C52.7899223,4.42271419 53.3328446,4.81530203 53.6226791,5.44212635 L53.7500405,5.71757905 L53.7500405,19.4532669 L53.7500405,33.1889561 L53.6141622,33.4618818 C53.4216351,33.8485811 53.0410405,34.221348 52.652902,34.4033649 L52.3198615,34.5595473 L29.1092264,34.5685 C16.3433774,34.5734324 5.8164848,34.557723 5.71612905,34.533625 L5.71612872,34.5336216 Z M52.0496047,32.865125 C52.0915101,32.7868277 52.1112939,29.1082703 52.1112939,21.3951115 L52.1112939,10.0403615 L48.09325,10.0242466 C44.1123649,10.0082669 44.0736486,10.0069493 43.9070338,9.88254392 C43.5436892,9.61121622 43.5063514,9.06769257 43.8264459,8.70938851 L43.9971081,8.51835135 L48.0393041,8.48855405 L52.0814966,8.45875676 L52.0814966,7.26107432 C52.0814966,6.33347973 52.0630507,6.04120405 51.9997128,5.9649777 C51.9239392,5.87378851 50.2353682,5.86655541 29.0217804,5.86655541 C6.80835507,5.86655541 6.12265405,5.86993378 6.0257223,5.97695405 C5.93805169,6.07382905 5.92779426,6.23262162 5.94199764,7.27305405 L5.95818345,8.45875676 L23.3096476,8.48855405 L40.6611149,8.51835135 L40.8293581,8.64311486 C41.2724189,8.97167905 41.1897331,9.74760473 40.6893818,9.95666554 C40.5266791,10.0246453 37.6711689,10.0379223 23.2116476,10.0379223 L5.92838885,10.0379223 L5.92838885,21.3938953 C5.92838885,29.1078953 5.94817264,32.7868345 5.99007635,32.8651318 C6.05090135,32.9787838 6.3729652,32.9803953 29.0198412,32.9803953 C51.6667162,32.9803953 51.9887804,32.9787061 52.0496047,32.8651318 L52.0496047,32.865125 Z M24.9199483,31.1183378 C24.6996443,30.9105608 24.6627828,30.7837838 24.6989922,30.3583919 C24.7159855,30.1589324 31.5309088,12.5633142 31.6599392,12.3857905 C31.8219054,12.1629493 32.1169899,12.0483412 32.4054155,12.09625 C32.9152061,12.1809291 33.1614054,12.4077365 33.1614054,12.7926926 C33.1614054,12.9483446 32.0994561,15.7607635 29.7310439,21.8775169 C27.8443436,26.7501757 26.2616476,30.812375 26.2139416,30.9046284 C26.0879179,31.1483277 25.8820193,31.2589966 25.4881916,31.2947061 C25.1542625,31.3249764 25.1316037,31.3179493 24.9199483,31.1183378 Z M20.3655159,27.9564966 C20.2462422,27.9124122 18.9835395,26.7414966 17.0439889,24.8764155 C13.8860057,21.8396926 13.7317929,21.672223 13.7363503,21.2844797 C13.7405057,20.9324764 13.9923233,20.6618649 17.1016713,17.6682331 C20.5757355,14.3234561 20.4782861,14.4005169 20.9628402,14.6148581 C21.324178,14.7746959 21.5411882,15.0519426 21.5411882,15.3537432 C21.5411882,15.592125 21.5163233,15.6195574 19.5895902,17.507152 C18.5162084,18.5587264 17.2223436,19.8283682 16.7143301,20.3285811 L15.7906747,21.2380608 L18.6659314,24.1174054 C21.4238909,26.8792872 21.5411882,27.0057534 21.5411882,27.2174257 C21.5411882,27.5001723 21.2119179,27.8851419 20.894722,27.9732432 C20.6302456,28.0467061 20.6076341,28.0459899 20.3655159,27.9564865 L20.3655159,27.9564966 Z M36.0004662,27.9730845 C35.5599088,27.8410608 35.3114324,27.3376453 35.4916216,26.9421689 C35.5277939,26.8627804 36.8283649,25.5577095 38.3817804,24.0420068 C39.9351926,22.5263041 41.2061689,21.2690811 41.2061689,21.2481791 C41.2061689,21.2272669 39.9348209,19.9928176 38.3809493,18.5049392 C36.8270777,17.0170608 35.5265068,15.7355743 35.4907939,15.6571892 C35.3418041,15.3301926 35.4871115,14.9396385 35.8608074,14.662777 C36.0932027,14.4905946 36.4415169,14.5079696 36.6913953,14.7042128 C36.7983345,14.7881993 38.2534426,16.174027 39.9249662,17.7838311 C42.9112399,20.6598446 43.167,20.9356554 43.1711047,21.2844865 C43.1756318,21.6694696 43.0155878,21.8431284 39.8610878,24.8760405 C37.9519223,26.7116182 36.6566926,27.9131216 36.5403108,27.9565034 C36.3172432,28.0396588 36.2314189,28.0422939 36.0004662,27.9730912 L36.0004662,27.9730845 Z" id="path356"></path>
                    </g>
                </g>
            </g>
        </g>
    </g>
</svg>