<?xml version="1.0" encoding="UTF-8"?>
<svg width="44px" height="50px" viewBox="0 0 44 50" version="1.1" xmlns="http://www.w3.org/2000/svg" xmlns:xlink="http://www.w3.org/1999/xlink">
    <!-- Generator: Sketch 52.4 (67378) - http://www.bohemiancoding.com/sketch -->
    <title>drawing-1</title>
    <desc>Created with Sketch.</desc>
    <g id="Page-1" stroke="none" stroke-width="1" fill="none" fill-rule="evenodd">
        <g id="iTechExpert" transform="translate(-990.000000, -1478.000000)" fill="#FE4A4A" fill-rule="nonzero">
            <g id="Our-Services" transform="translate(223.000000, 1029.000000)">
                <g id="UI/UX-Design-Copy-5" transform="translate(767.000000, 449.000000)">
                    <g id="drawing-1">
                        <path d="M19.7019813,49.8633636 C15.949279,49.5684489 12.2568869,48.4055682 9.18436477,46.5509545 C8.04377898,45.862483 5.9021983,44.2132443 4.92815966,43.2732386 C3.90282784,42.2837273 3.8262642,42.0704886 4.30423295,41.5355511 C4.74533977,41.0418693 5.00331136,41.1043807 5.85224205,41.9106705 C8.0580767,44.0057159 11.1419795,45.9369716 13.7989551,46.8871989 C14.9670381,47.3049432 17.220729,47.8312557 18.6051352,48.0095966 C20.3068392,48.2288125 23.4782426,48.2295398 25.1194983,48.0113011 C29.8829205,47.3772955 33.6577443,45.6082898 37.4834773,42.2171364 C38.0549318,41.7105966 38.6008807,41.2661932 38.6966932,41.2295739 C38.9478295,41.1336023 39.3108125,41.3470114 39.5275057,41.7180398 C39.7042386,42.0206534 39.7055682,42.059375 39.5504034,42.386392 C39.2470682,43.025625 36.3417841,45.427 34.5821648,46.4929091 C31.8637273,48.1396364 28.533517,49.3057557 25.3734813,49.7174602 C23.9854188,49.8983011 21.0923449,49.9728352 19.7019983,49.8635739 L19.7019813,49.8633636 Z M20.1084472,46.5005114 C19.9430835,46.4776705 19.4018903,46.4096875 18.9057983,46.3494545 C13.6858045,45.7156705 8.43391534,42.7580966 5.12697614,38.5899773 C0.575207386,32.852858 -0.780214205,25.1999943 1.52652386,18.2614261 C2.2478108,16.0918239 3.20574602,14.3035341 4.66571193,12.4011364 C8.49797955,7.40752273 13.6144318,4.46889773 19.5464585,3.85440909 C20.961646,3.7078125 24.1691517,3.7888125 25.4208449,4.00275568 C26.5591801,4.19732386 28.4886477,4.69610227 29.3343466,5.01442045 C33.4905227,6.57880114 37.3794773,9.79107955 40.0480682,13.8639716 C41.6103295,16.2483409 42.7369034,19.4308807 43.1145568,22.5266989 C43.274483,23.8376477 43.1866761,27.6741477 42.9706193,28.8160682 C42.4704716,31.4595 41.6152614,33.8391307 40.4877557,35.7246591 C38.795483,38.5546591 36.077733,41.395625 33.2726364,43.2669091 C31.0560909,44.7455682 28.1021761,45.8617614 25.2197199,46.3098523 C24.2677938,46.4578295 20.7494244,46.5890739 20.1084472,46.5005114 Z M24.618396,44.6417557 C25.5926176,44.5226307 27.241875,44.1409261 28.3265682,43.7835284 C32.126267,42.5315682 35.901017,39.5405682 38.4172045,35.7880227 C42.500608,29.6981875 42.5420682,20.6807386 38.5144489,14.6371705 C34.3887557,8.44644318 28.2019375,5.21708523 21.0104415,5.50053977 C17.2435176,5.64901136 13.9479585,6.72207955 10.7802455,8.83159091 C7.96000114,10.7097102 5.8202483,13.1474034 4.27669943,16.2407045 C3.40782841,17.9819318 2.93285966,19.3406761 2.57695057,21.1031648 C1.5345858,26.2650398 2.48937841,31.5758466 5.19825909,35.6835682 C8.05529205,40.0159489 12.3257386,43.1242841 16.9514898,44.2384148 C19.3420608,44.8141932 22.0451233,44.9563977 24.618396,44.6417557 Z M7.83138182,35.363892 C7.74869943,35.3324148 7.60212614,35.2378864 7.50566364,35.1538523 C7.34509261,35.0139773 7.3302767,34.7145284 7.3302767,31.6090909 C7.3302767,28.3507386 7.33817443,28.2092102 7.53071875,28.0166648 C7.67177102,27.8756136 7.86478807,27.8162273 8.18215511,27.8162273 C8.49952159,27.8162273 8.6925392,27.8756136 8.83359148,28.0166648 C9.02160284,28.2046761 9.03403352,28.3507386 9.03403352,30.371858 C9.03403352,31.5569716 9.0680108,32.526608 9.1095375,32.526608 C9.15106591,32.526608 11.6877563,30.0235909 14.7466284,26.9643466 C19.9517881,21.7585568 20.3304358,21.4020852 20.6549131,21.4020852 C20.9733165,21.4020852 21.1900665,21.5900568 23.3111062,23.705642 L25.6206006,26.0092045 L30.8844148,20.749125 C35.7115568,15.9254034 36.1757045,15.4890455 36.4794432,15.4890455 C36.870267,15.4890455 37.3965682,15.9504091 37.3965682,16.293017 C37.3965682,16.4451364 36.2172045,17.7127898 33.4965966,20.4849489 C27.0111818,27.0932614 25.9550665,28.1163295 25.6144472,28.1204545 C25.3604528,28.1232955 25.0028562,27.7994432 23.0148562,25.7644489 L20.7097767,23.4048693 L15.5487608,28.5670682 L10.387746,33.7292614 L12.1913585,33.7315341 C14.1148324,33.7338068 14.7146841,33.8136875 14.9193312,34.0935625 C15.1070108,34.3502273 15.0753449,34.8749261 14.855804,35.1461875 L14.6643159,35.3827841 L11.3230148,35.4019318 C9.48529943,35.4124432 7.9140642,35.3952841 7.83138182,35.3638068 L7.83138182,35.363892 Z M4.28244602,8.76655114 C3.86533409,8.27084091 3.93296932,8.04394318 4.74857273,7.2028125 C6.33664716,5.56502273 8.54815682,4.00701705 10.988342,2.80690341 C13.4552903,1.593625 15.6274312,0.934556818 18.454804,0.541431818 C19.868754,0.344835227 24.1060551,0.372744318 25.5763449,0.588306818 C28.7031591,1.04680114 31.8006705,2.13647159 34.438392,3.70586932 C35.5574091,4.37166477 37.6798182,5.99086364 38.7411989,6.98851136 C39.5134148,7.71435227 39.6348352,7.87313068 39.6348352,8.15709091 C39.6348352,8.58714773 39.2275,9.0080625 38.8113068,9.0080625 C38.5798011,9.0080625 38.353733,8.86174432 37.8339205,8.37548864 C36.0219659,6.6805 34.0168295,5.30243182 31.8506307,4.26336364 C29.7472727,3.2544375 27.7393182,2.65260795 25.2756801,2.29269318 C23.6493733,2.05510227 20.038521,2.05655114 18.4168023,2.29553409 C16.9788938,2.50734659 14.4570989,3.130625 13.4938665,3.51226705 C10.6786483,4.62769318 8.06966193,6.2891875 5.90847386,8.34290909 C5.00525455,9.20121591 4.71235795,9.27753409 4.28244602,8.76661364 L4.28244602,8.76655114 Z" id="path439"></path>
                    </g>
                </g>
            </g>
        </g>
    </g>
</svg>